<?xml version="1.0" encoding="utf-8"?>
<!-- Generator: Adobe Illustrator 22.1.0, SVG Export Plug-In . SVG Version: 6.00 Build 0)  -->
<svg version="1.1" id="图层_1" xmlns="http://www.w3.org/2000/svg" xmlns:xlink="http://www.w3.org/1999/xlink" x="0px" y="0px"
	 viewBox="0 0 1024 1024" style="enable-background:new 0 0 1024 1024;" xml:space="preserve">
<style type="text/css">
	.st0{fill:#FFFFFF;}
	.st1{fill:url(#SVGID_1_);}
	.st2{fill:url(#SVGID_2_);}
	.st3{fill:#020202;}
</style>
<g>
	<g>
		<path class="st0" d="M404.8,278.8L400,265l-4.9,13.8l-14.7,0.4l11.6,8.9l-4.2,14l12.1-8.3l12.1,8.3l-4.2-14l11.6-8.9L404.8,278.8z
			 M455.8,278.8L451,265l-4.9,13.8l-14.7,0.4l11.6,8.9l-4.2,14l12.1-8.3l12.1,8.3l-4.2-14l11.6-8.9L455.8,278.8z M484.4,230.3
			l-14.7-0.4l-4.9-13.8L460,230l-14.7,0.4l11.6,8.9l-4.2,14l12.1-8.3l12.1,8.3l-4.2-14L484.4,230.3z M386.2,245l12.1,8.3l-4.2-14
			l11.6-8.9l-14.7-0.4l-4.9-13.8l-4.9,13.8l-14.7,0.4l11.6,8.9l-4.2,14L386.2,245z M432.9,207.4l11.6-8.9l-14.7-0.4l-4.9-13.8
			l-4.9,13.8l-14.7,0.4l11.6,8.9l-4.2,14l12.1-8.3l12.1,8.3L432.9,207.4z"/>
	</g>
	<polygon class="st0" points="376.6,262.7 515.1,660.5 339.3,552.6 	"/>
	<linearGradient id="SVGID_1_" gradientUnits="userSpaceOnUse" x1="544.7959" y1="385.6238" x2="663.1213" y2="590.5695">
		<stop  offset="0" style="stop-color:#FF576F"/>
		<stop  offset="0.3382" style="stop-color:#FF8D9D"/>
		<stop  offset="1" style="stop-color:#FFFFFF"/>
	</linearGradient>
	<polygon class="st1" points="655,254.3 690.3,546.7 520.7,666.2 	"/>
	<linearGradient id="SVGID_2_" gradientUnits="userSpaceOnUse" x1="370.9248" y1="298.0002" x2="603.1462" y2="432.0733">
		<stop  offset="0" style="stop-color:#FF576F"/>
		<stop  offset="1" style="stop-color:#FF0000"/>
	</linearGradient>
	<polygon class="st2" points="514.9,101.8 654.8,226.5 515.1,660.5 376.6,228.6 	"/>
	<g>
		<path class="st3" d="M515.2,113.1l130.9,114.7l37.6,321.3L515.1,660.5l-168-110.7l38.7-320.2L515.2,113.1 M515.1,94L372.3,222.5
			l-40.5,334.3l183.2,120.8l183.8-121.4l-39.3-335.5L515.1,94L515.1,94z"/>
		<g>
			<path d="M513.9,671.1C513.9,671.1,513.9,671.1,513.9,671.1c-3.1,0-5.8-2-6.8-4.9L370.4,243.4c-1.2-3.8,0.8-7.8,4.6-9
				c3.7-1.2,7.8,0.8,9,4.6l130,401.9l132.9-407.4c1.2-3.7,5.2-5.8,9-4.6c3.7,1.2,5.8,5.3,4.6,9L520.7,666.2
				C519.7,669.2,517,671.1,513.9,671.1z"/>
		</g>
		<g>
			<path class="st0" d="M494.7,279.8l-4.9-13.8l-4.9,13.8l-14.7,0.4l11.6,8.9l-4.2,14l12.1-8.3l12.1,8.3l-4.2-14l11.6-8.9
				L494.7,279.8z M545.7,279.8l-4.9-13.8l-4.9,13.8l-14.7,0.4l11.6,8.9l-4.2,14l12.1-8.3l12.1,8.3l-4.2-14l11.6-8.9L545.7,279.8z
				 M574.3,231.3l-14.7-0.4l-4.9-13.8l-4.9,13.8l-14.7,0.4l11.6,8.9l-4.2,14l12.1-8.3l12.1,8.3l-4.2-14L574.3,231.3z M476.1,246
				l12.1,8.3l-4.2-14l11.6-8.9l-14.7-0.4l-4.9-13.8l-4.9,13.8l-14.7,0.4l11.6,8.9l-4.2,14L476.1,246z M522.8,208.4l11.6-8.9
				l-14.7-0.4l-4.9-13.8l-4.9,13.8l-14.7,0.4l11.6,8.9l-4.2,14l12.1-8.3l12.1,8.3L522.8,208.4z"/>
		</g>
	</g>
	<g>
		<path d="M276.2,764.4v13h-51.9v25.8h48.7v13h-48.7v28.1h54.1v13h-69.3v-93H276.2z"/>
		<path d="M367.7,776.4c7.8,8.7,11.7,20.3,11.7,34.7c0,14.3-3.9,25.8-11.7,34.5c-8.2,9.1-19.4,13.7-33.6,13.7
			c-14.3,0-25.5-4.7-33.6-13.8c-7.8-8.9-11.6-20.3-11.6-34.4c0-14.2,3.8-25.7,11.6-34.5c8.1-9.4,19.3-13.9,33.6-13.9
			C348.3,762.6,359.5,767.2,367.7,776.4z M311.7,785.8c-5.1,6.3-7.6,14.6-7.6,25.3c0,10.6,2.5,18.9,7.6,25.1
			c5.2,6.4,12.8,9.6,22.4,9.6c9.6,0,17.1-3.1,22.3-9.2c5.1-6.1,7.7-14.6,7.7-25.5c0-10.9-2.6-19.5-7.7-25.8
			c-5.2-6.3-12.6-9.2-22.3-9.2C324.4,776,317,779.3,311.7,785.8z"/>
		<path d="M452.2,769.4c6.5,4.8,10.3,12.4,11.2,22.5h-15.1c-1.3-5.7-3.8-9.9-7.2-12.4c-3.4-2.6-8.6-3.8-15.4-3.8
			c-5.9,0-10.3,0.8-13.4,2.5c-3.9,2-5.7,5.2-5.7,9.6c0,3.9,2.1,7.2,6.5,9.5c2,1,7.3,3,15.9,5.7c12.6,3.9,20.7,7,24.4,9.1
			c8.1,4.8,12.1,11.5,12.1,20.1c0,8.3-3.3,15-9.8,19.8c-6.5,4.7-15.8,7.2-27.6,7.2c-11.5,0-20.5-2.2-26.8-6.6
			c-7.8-5.5-12.1-14.1-12.8-25.9h15.1c1,7,3.5,12.1,7.6,15.1c3.6,2.6,9.2,4,16.9,4c6.8,0,12.2-1.2,16.2-3.4c3.9-2.3,6-5.3,6-9.2
			c0-5-3-8.9-8.7-11.7c-1.8-0.9-7.8-3-18.1-6.1c-11.5-3.6-18.6-6.3-21.4-7.8c-7.2-4.3-10.7-10.6-10.7-18.8s3.4-14.7,10.4-19.4
			c6.5-4.6,14.7-6.8,24.8-6.8C437.5,762.6,446.1,764.8,452.2,769.4z"/>
		<path d="M493.8,764.4v93h-15.2v-93H493.8z"/>
		<path d="M586.9,776.4c7.8,8.7,11.7,20.3,11.7,34.7c0,14.3-3.9,25.8-11.7,34.5c-8.2,9.1-19.4,13.7-33.6,13.7
			c-14.3,0-25.5-4.7-33.6-13.8c-7.8-8.9-11.6-20.3-11.6-34.4c0-14.2,3.8-25.7,11.6-34.5c8.1-9.4,19.3-13.9,33.6-13.9
			C567.5,762.6,578.7,767.2,586.9,776.4z M530.9,785.8c-5.1,6.3-7.6,14.6-7.6,25.3c0,10.6,2.5,18.9,7.6,25.1
			c5.2,6.4,12.8,9.6,22.4,9.6s17.1-3.1,22.3-9.2c5.1-6.1,7.7-14.6,7.7-25.5c0-10.9-2.6-19.5-7.7-25.8c-5.2-6.3-12.6-9.2-22.3-9.2
			S536.3,779.3,530.9,785.8z"/>
		<path d="M629,840.8c2,2,3,4.4,3,7.3s-1,5.2-3,7.3c-2.1,1.8-4.4,2.9-7.3,2.9s-5.3-1-7.2-2.9c-2.1-2.1-3-4.4-3-7.3s0.9-5.3,3-7.3
			c1.8-2.1,4.3-3,7.2-3S626.9,838.7,629,840.8z"/>
		<path d="M707.3,769.4c6.5,4.8,10.3,12.4,11.2,22.5h-15.1c-1.3-5.7-3.8-9.9-7.2-12.4c-3.4-2.6-8.6-3.8-15.4-3.8
			c-5.9,0-10.3,0.8-13.4,2.5c-3.9,2-5.7,5.2-5.7,9.6c0,3.9,2.1,7.2,6.5,9.5c2,1,7.3,3,15.9,5.7c12.6,3.9,20.7,7,24.4,9.1
			c8.1,4.8,12.1,11.5,12.1,20.1c0,8.3-3.3,15-9.8,19.8c-6.5,4.7-15.8,7.2-27.6,7.2c-11.5,0-20.5-2.2-26.8-6.6
			c-7.8-5.5-12.1-14.1-12.8-25.9h15.1c1,7,3.5,12.1,7.6,15.1c3.6,2.6,9.2,4,16.9,4c6.8,0,12.2-1.2,16.2-3.4c3.9-2.3,6-5.3,6-9.2
			c0-5-3-8.9-8.7-11.7c-1.8-0.9-7.8-3-18.1-6.1c-11.5-3.6-18.6-6.3-21.4-7.8c-7.2-4.3-10.7-10.6-10.7-18.8s3.4-14.7,10.4-19.4
			c6.5-4.6,14.7-6.8,24.8-6.8C692.6,762.6,701.2,764.8,707.3,769.4z"/>
		<path d="M802.3,770.6c6.6,5.2,10.8,12.9,12.5,23.3h-15.4c-1.3-6-4.2-10.4-8.3-13.4c-4.3-3-10-4.4-17.1-4.4
			c-8.7,0-15.6,2.9-20.7,8.9c-5.6,6.3-8.3,15-8.3,26.4c0,10.9,2.5,19.4,7.4,25.3c5.3,6.3,13.7,9.4,25,9.4c4.4,0,8.6-0.5,12.5-1.6
			c3.6-1,6.9-2.5,10-4.3V821h-24.6v-13h39.9v39.3c-5,3.9-10.6,6.8-16.9,8.9c-6.8,2.1-14.2,3.1-22.5,3.1c-14.9,0-26.3-4.7-34.5-14.1
			c-7.7-8.7-11.5-20.1-11.5-33.9c0-13.9,3.8-25.4,11.5-34.4c8.1-9.6,19-14.3,32.8-14.3C786,762.6,795.4,765.2,802.3,770.6z"/>
	</g>
</g>
</svg>
