<?xml version="1.0" encoding="utf-8"?>
<!-- Generator: Adobe Illustrator 22.1.0, SVG Export Plug-In . SVG Version: 6.00 Build 0)  -->
<svg version="1.1" id="图层_1" xmlns="http://www.w3.org/2000/svg" xmlns:xlink="http://www.w3.org/1999/xlink" x="0px" y="0px"
	 viewBox="0 0 1024 1024" style="enable-background:new 0 0 1024 1024;" xml:space="preserve">
<style type="text/css">
	.st0{fill:#FFFFFF;}
	.st1{fill:url(#SVGID_1_);}
	.st2{fill:url(#SVGID_2_);}
	.st3{fill:#020202;}
</style>
<g>
	<polygon class="st0" points="112,442.8 189.5,665.7 91.1,605.3 	"/>
	<linearGradient id="SVGID_1_" gradientUnits="userSpaceOnUse" x1="206.1937" y1="511.718" x2="272.4928" y2="626.5515">
		<stop  offset="0" style="stop-color:#FF576F"/>
		<stop  offset="0.3382" style="stop-color:#FF8D9D"/>
		<stop  offset="1" style="stop-color:#FFFFFF"/>
	</linearGradient>
	<polygon class="st1" points="268,438.1 287.7,602 192.7,668.9 	"/>
	<linearGradient id="SVGID_2_" gradientUnits="userSpaceOnUse" x1="108.7717" y1="462.6214" x2="238.8881" y2="537.7441">
		<stop  offset="0" style="stop-color:#FF576F"/>
		<stop  offset="1" style="stop-color:#FF0000"/>
	</linearGradient>
	<polygon class="st2" points="189.4,352.7 267.9,422.6 189.5,665.7 112,423.7 	"/>
	<g>
		<path class="st3" d="M189.6,359l73.3,64.3L284,603.4l-94.5,62.4l-94.1-62l21.7-179.4L189.6,359 M189.6,348.3l-80,72L86.9,607.7
			l102.7,67.7l103-68l-22-188L189.6,348.3L189.6,348.3z"/>
		<g>
			<path d="M188.9,671.7C188.9,671.7,188.9,671.7,188.9,671.7c-1.7,0-3.3-1.1-3.8-2.8L108.5,432c-0.7-2.1,0.5-4.4,2.6-5
				c2.1-0.7,4.4,0.5,5,2.6l72.8,225.2l74.4-228.3c0.7-2.1,2.9-3.3,5-2.6c2.1,0.7,3.2,2.9,2.6,5l-78.3,240
				C192.2,670.6,190.6,671.7,188.9,671.7z"/>
		</g>
		<g>
			<path class="st0" d="M178.1,452.4l-2.7-7.7l-2.7,7.7l-8.2,0.2l6.5,5l-2.3,7.9l6.8-4.6l6.8,4.6l-2.3-7.9l6.5-5L178.1,452.4z
				 M206.7,452.4l-2.7-7.7l-2.7,7.7l-8.2,0.2l6.5,5l-2.3,7.9l6.8-4.6l6.8,4.6l-2.3-7.9l6.5-5L206.7,452.4z M222.7,425.3l-8.2-0.2
				l-2.7-7.7l-2.7,7.7l-8.2,0.2l6.5,5l-2.3,7.9l6.8-4.6l6.8,4.6l-2.3-7.9L222.7,425.3z M167.7,433.5l6.8,4.6l-2.3-7.9l6.5-5
				l-8.2-0.2l-2.7-7.7l-2.7,7.7l-8.2,0.2l6.5,5l-2.3,7.9L167.7,433.5z M193.8,412.4l6.5-5l-8.2-0.2l-2.7-7.7l-2.7,7.7l-8.2,0.2
				l6.5,5l-2.3,7.9l6.8-4.6l6.8,4.6L193.8,412.4z"/>
		</g>
	</g>
	<g>
		<path d="M442.5,491.7v12h-47.9v23.8h45v12h-45v26h49.9v12h-64v-85.9H442.5z"/>
		<path d="M526.9,502.8c7.2,8.1,10.8,18.8,10.8,32c0,13.2-3.6,23.8-10.8,31.9c-7.6,8.4-17.9,12.6-31,12.6c-13.2,0-23.6-4.3-31-12.8
			c-7.2-8.2-10.7-18.8-10.7-31.8c0-13.1,3.5-23.7,10.7-31.9c7.5-8.7,17.8-12.9,31-12.9C509,490,519.3,494.2,526.9,502.8z
			 M475.2,511.4c-4.7,5.8-7,13.5-7,23.3c0,9.7,2.3,17.4,7,23.2c4.8,5.9,11.8,8.9,20.7,8.9c8.9,0,15.8-2.9,20.6-8.5
			c4.7-5.7,7.1-13.5,7.1-23.6c0-10.1-2.4-18-7.1-23.8c-4.8-5.8-11.7-8.5-20.6-8.5C487,502.4,480.1,505.4,475.2,511.4z"/>
		<path d="M605,496.3c6,4.5,9.5,11.4,10.3,20.8h-14c-1.2-5.3-3.5-9.1-6.6-11.4c-3.1-2.4-7.9-3.5-14.2-3.5c-5.4,0-9.5,0.7-12.4,2.3
			c-3.6,1.8-5.3,4.8-5.3,8.9c0,3.6,1.9,6.6,6,8.8c1.8,1,6.7,2.8,14.7,5.3c11.7,3.6,19.1,6.5,22.5,8.4c7.5,4.5,11.2,10.6,11.2,18.5
			c0,7.7-3,13.8-9,18.3c-6,4.3-14.6,6.6-25.5,6.6c-10.6,0-18.9-2-24.8-6.1c-7.2-5.1-11.2-13-11.8-23.9h14c1,6.5,3.2,11.2,7,14
			c3.4,2.4,8.5,3.7,15.6,3.7c6.3,0,11.3-1.1,14.9-3.1c3.6-2.2,5.5-4.9,5.5-8.5c0-4.6-2.8-8.2-8.1-10.8c-1.7-0.8-7.2-2.8-16.7-5.7
			c-10.6-3.4-17.2-5.8-19.7-7.2c-6.6-4-9.9-9.7-9.9-17.3c0-7.6,3.1-13.6,9.6-17.9c6-4.2,13.6-6.3,22.9-6.3
			C591.4,490,599.3,492,605,496.3z"/>
		<path d="M643.4,491.7v85.9h-14.1v-85.9H643.4z"/>
		<path d="M729.4,502.8c7.2,8.1,10.8,18.8,10.8,32c0,13.2-3.6,23.8-10.8,31.9c-7.6,8.4-17.9,12.6-31,12.6c-13.2,0-23.6-4.3-31-12.8
			c-7.2-8.2-10.7-18.8-10.7-31.8c0-13.1,3.5-23.7,10.7-31.9c7.5-8.7,17.8-12.9,31-12.9C711.5,490,721.8,494.2,729.4,502.8z
			 M677.7,511.4c-4.7,5.8-7,13.5-7,23.3c0,9.7,2.3,17.4,7,23.2c4.8,5.9,11.8,8.9,20.7,8.9c8.9,0,15.8-2.9,20.6-8.5
			c4.7-5.7,7.1-13.5,7.1-23.6c0-10.1-2.4-18-7.1-23.8c-4.8-5.8-11.7-8.5-20.6-8.5C689.5,502.4,682.6,505.4,677.7,511.4z"/>
		<path d="M768.3,562.2c1.8,1.8,2.8,4.1,2.8,6.7c0,2.6-1,4.8-2.8,6.7c-1.9,1.7-4.1,2.6-6.7,2.6c-2.6,0-4.9-1-6.6-2.6
			c-1.9-1.9-2.8-4.1-2.8-6.7c0-2.6,0.8-4.9,2.8-6.7c1.7-1.9,4-2.8,6.6-2.8C764.2,559.4,766.3,560.3,768.3,562.2z"/>
		<path d="M840.6,496.3c6,4.5,9.5,11.4,10.3,20.8h-14c-1.2-5.3-3.5-9.1-6.6-11.4c-3.1-2.4-7.9-3.5-14.2-3.5c-5.4,0-9.5,0.7-12.4,2.3
			c-3.6,1.8-5.3,4.8-5.3,8.9c0,3.6,1.9,6.6,6,8.8c1.8,1,6.7,2.8,14.7,5.3c11.7,3.6,19.1,6.5,22.5,8.4c7.5,4.5,11.2,10.6,11.2,18.5
			c0,7.7-3,13.8-9,18.3c-6,4.3-14.6,6.6-25.5,6.6c-10.6,0-18.9-2-24.8-6.1c-7.2-5.1-11.2-13-11.8-23.9h14c1,6.5,3.2,11.2,7,14
			c3.4,2.4,8.5,3.7,15.6,3.7c6.3,0,11.3-1.1,14.9-3.1c3.6-2.2,5.5-4.9,5.5-8.5c0-4.6-2.8-8.2-8.1-10.8c-1.7-0.8-7.2-2.8-16.7-5.7
			c-10.6-3.4-17.2-5.8-19.7-7.2c-6.6-4-9.9-9.7-9.9-17.3c0-7.6,3.1-13.6,9.6-17.9c6-4.2,13.6-6.3,22.9-6.3
			C827,490,834.9,492,840.6,496.3z"/>
		<path d="M928.3,497.3c6.1,4.8,10,11.9,11.5,21.5h-14.2c-1.2-5.5-3.8-9.6-7.7-12.4c-4-2.8-9.3-4.1-15.8-4.1
			c-8.1,0-14.4,2.6-19.1,8.2c-5.2,5.8-7.7,13.8-7.7,24.4c0,10.1,2.3,17.9,6.9,23.3c4.9,5.8,12.6,8.7,23.1,8.7
			c4.1,0,7.9-0.5,11.5-1.4c3.4-1,6.4-2.3,9.3-4v-17.7h-22.7v-12h36.8v36.3c-4.6,3.6-9.7,6.3-15.6,8.2c-6.3,1.9-13.1,2.9-20.8,2.9
			c-13.7,0-24.3-4.3-31.9-13c-7.1-8.1-10.6-18.5-10.6-31.3c0-12.9,3.5-23.5,10.6-31.8c7.5-8.9,17.6-13.2,30.3-13.2
			C913.2,490,921.9,492.4,928.3,497.3z"/>
	</g>
</g>
</svg>
